<svg width="531" height="93" viewBox="0 0 531 93" fill="none" xmlns="http://www.w3.org/2000/svg">
<path d="M443 17.5298C443 12.9188 444.364 8.87091 447.092 5.38614C448.771 3.25289 450.751 1.53701 453.034 0.238501L453.407 0.894378C451.296 2.59038 449.787 4.24002 448.882 5.84327C447.295 8.63903 446.502 12.3623 446.502 17.0131C446.502 20.4581 446.804 23.3002 447.407 25.5395C448.469 29.4615 450.469 32.3964 453.407 34.3441L452.896 35C451.283 34.2182 449.538 32.6879 447.663 30.4089C444.554 26.6326 443 22.3396 443 17.5298Z" fill="#02B9E7"/>
<path d="M455.021 27.0102C456.503 26.8512 457.46 26.5862 457.893 26.2152C458.339 25.831 458.562 24.8703 458.562 23.3333V5.22714C458.562 3.78289 458.345 2.84214 457.913 2.40488C457.48 1.95438 456.516 1.67613 455.021 1.57013V0.814878H466.412V1.57013C464.93 1.64963 463.933 1.89476 463.421 2.30551C462.923 2.71626 462.674 3.59739 462.674 4.94889V24.506C462.674 24.9565 462.746 25.3142 462.89 25.5792C463.047 25.831 463.382 25.99 463.893 26.0562C464.195 26.096 464.51 26.1225 464.838 26.1357C465.179 26.149 465.808 26.1556 466.726 26.1556C470.307 26.1556 472.727 25.8575 473.986 25.2612C475.245 24.665 476.465 23.1412 477.645 20.6899H478.668L476.701 27.7456H455.021V27.0102Z" fill="#02B9E7"/>
<path d="M482.505 2.08688C482.505 1.51713 482.701 1.02688 483.095 0.616127C483.488 0.205376 483.974 0 484.551 0C485.115 0 485.593 0.205376 485.987 0.616127C486.393 1.01363 486.597 1.50388 486.597 2.08688C486.597 2.65663 486.393 3.14689 485.987 3.55764C485.593 3.95514 485.115 4.15389 484.551 4.15389C483.974 4.15389 483.488 3.95514 483.095 3.55764C482.701 3.14689 482.505 2.65663 482.505 2.08688ZM479.986 27.1891C481.39 27.0566 482.275 26.8181 482.642 26.4736C483.01 26.1158 483.193 25.1618 483.193 23.6116V14.1312C483.193 13.2699 483.134 12.6737 483.016 12.3424C482.819 11.7992 482.406 11.5275 481.777 11.5275C481.632 11.5275 481.488 11.5408 481.344 11.5673C481.213 11.5938 480.819 11.6998 480.163 11.8853V11.2692L481.009 10.9909C483.305 10.2357 484.905 9.66591 485.81 9.28166C486.177 9.12266 486.413 9.04316 486.518 9.04316C486.544 9.13591 486.557 9.23528 486.557 9.34128V23.6116C486.557 25.1221 486.734 26.0695 487.089 26.4537C487.456 26.838 488.276 27.0831 489.548 27.1891V27.7456H479.986V27.1891Z" fill="#02B9E7"/>
<path d="M502.395 0.814878V1.57013C500.847 1.67613 499.844 1.94113 499.385 2.36513C498.925 2.77588 498.696 3.72989 498.696 5.22714V18.2453C498.696 20.3786 498.985 22.0415 499.562 23.234C500.637 25.407 502.677 26.4935 505.68 26.4935C508.972 26.4935 511.182 25.3805 512.31 23.1545C512.94 21.909 513.254 19.9877 513.254 17.3907V6.79727C513.254 4.58452 512.992 3.19989 512.467 2.64338C511.943 2.07363 510.946 1.71588 509.477 1.57013V0.814878H518.802V1.57013C517.242 1.74238 516.219 2.12663 515.733 2.72288C515.261 3.30589 515.025 4.66402 515.025 6.79727V17.3907C515.025 20.1997 514.599 22.3926 513.746 23.9693C512.172 26.8711 509.182 28.322 504.775 28.322C500.421 28.322 497.457 26.891 495.883 24.029C495.03 22.492 494.604 20.4647 494.604 17.9472V5.22714C494.604 3.74314 494.374 2.79576 493.915 2.38501C493.469 1.96101 492.486 1.68938 490.964 1.57013V0.814878H502.395Z" fill="#02B9E7"/>
<path d="M531 17.7286C531 19.7028 530.744 21.5711 530.233 23.3333C529.721 25.0956 528.974 26.7585 527.99 28.322C526.954 29.9915 525.57 31.5484 523.839 32.9926C522.698 33.9466 521.74 34.6157 520.966 35L520.593 34.3441C522.612 32.7939 524.088 31.2105 525.019 29.594C526.672 26.732 527.498 22.9491 527.498 18.2453C527.498 14.4426 527.118 11.3354 526.357 8.92391C525.295 5.51864 523.373 2.84214 520.593 0.894378L521.104 0.238501C523.176 1.40451 525.104 3.16676 526.888 5.52527C529.629 9.15578 531 13.2235 531 17.7286Z" fill="#02B9E7"/>
<path d="M27.5929 1.17535L0 72.7992H13.539L21.0442 52.2303H46.9448L54.8916 72.7992H69.1663L39.8074 1.17535H27.5929ZM25.0176 41.2112L31.5663 23.7277C32.3757 21.5239 33.1115 19.2466 33.7738 16.9693C34.5832 19.3201 35.5397 21.9646 36.6434 24.8296L42.8242 41.1378H25.0176V41.2112Z" fill="black"/>
<path d="M86.0151 1.17535H73.3591V72.7992H86.0151V1.17535Z" fill="black"/>
<path d="M166.809 33.4979C163.939 32.1756 158.862 30.7064 151.357 29.0168C142.233 26.9599 139.437 25.3438 138.628 24.6092C137.23 23.3604 136.567 21.8912 136.567 19.9812C136.567 17.7039 137.597 15.8674 139.584 14.1778C141.718 12.4882 145.323 11.6067 150.327 11.6067C155.11 11.6067 158.715 12.5617 160.996 14.4717C163.277 16.3816 164.602 19.1732 165.043 22.9931L165.264 24.7561L177.478 23.8746L177.405 22.1116C177.258 17.7774 176.007 13.884 173.726 10.4314C171.445 6.97872 168.207 4.33416 164.013 2.57111C159.966 0.881524 155.183 0 149.959 0C145.176 0 140.688 0.808055 136.788 2.42418C132.741 4.11377 129.577 6.61143 127.37 9.91714C125.236 13.2229 124.132 16.7489 124.132 20.5689C124.132 24.0215 125.015 27.1803 126.781 30.0453C128.547 32.8368 131.196 35.1875 134.728 37.024C137.377 38.4197 141.865 39.889 148.34 41.4316C154.448 42.9008 158.494 44.0028 160.26 44.6639C162.762 45.6189 164.602 46.7942 165.558 48.1165C166.515 49.3653 167.03 50.8346 167.03 52.5976C167.03 54.2872 166.515 55.9033 165.485 57.3725C164.381 58.8417 162.689 60.0171 160.408 60.8986C157.979 61.8536 155.183 62.2944 151.946 62.2944C148.34 62.2944 145.103 61.6332 142.233 60.4579C139.511 59.2825 137.45 57.7398 136.199 55.8298C134.875 53.9199 134.066 51.3488 133.698 48.2634L133.477 46.5004L121.483 47.5288L121.557 49.2919C121.704 54.1403 123.028 58.6213 125.604 62.4413C128.179 66.3347 131.711 69.2731 136.199 71.1831C140.541 73.093 146.059 74.048 152.387 74.048C157.464 74.048 162.174 73.093 166.294 71.1831C170.488 69.2731 173.726 66.5551 176.007 63.029C178.288 59.5763 179.391 55.7564 179.391 51.7895C179.391 47.8227 178.361 44.2231 176.228 41.0643C174.241 38.0524 171.077 35.4813 166.809 33.4979Z" fill="black"/>
<path d="M208.896 18.8058C202.348 18.8058 196.756 20.7893 192.193 24.7561C186.748 29.4576 183.952 36.8036 183.952 46.4269C183.952 55.1687 186.307 62.074 190.869 66.7754C195.431 71.5504 201.538 73.9745 208.97 73.9745C213.532 73.9745 217.873 72.8727 221.773 70.7423C225.746 68.5385 228.763 65.4532 230.824 61.5598C232.884 57.6664 233.914 52.3772 233.914 45.7658C233.914 37.4648 231.559 30.8533 226.924 26.0784C222.215 21.23 216.181 18.8058 208.896 18.8058ZM221.552 46.0596C221.552 52.0099 220.302 56.491 217.873 59.2825C215.445 62.074 212.502 63.3963 208.896 63.3963C205.217 63.3963 202.274 62.074 199.846 59.2825C197.418 56.491 196.167 52.1568 196.167 46.3535C196.167 40.5501 197.418 36.2159 199.846 33.4244C202.274 30.7064 205.217 29.3841 208.896 29.3841C212.502 29.3841 215.445 30.7064 217.873 33.4979C220.302 36.2159 221.552 40.4766 221.552 46.0596Z" fill="black"/>
<path d="M272.103 52.671C271.588 56.4175 270.337 59.1356 268.498 60.8252C266.658 62.5148 264.377 63.3228 261.507 63.3228C257.975 63.3228 255.179 62.074 252.972 59.5028C250.764 56.8583 249.587 52.3772 249.587 46.28C249.587 40.2562 250.765 35.8486 253.119 33.2041C255.4 30.5595 258.343 29.3107 262.022 29.3107C264.377 29.3107 266.29 29.9718 267.982 31.3675C269.601 32.7633 270.779 34.9671 271.514 37.832L271.882 39.5217L283.582 37.6852L283.214 35.8487C282.184 30.4861 279.755 26.2253 276.003 23.2135C272.25 20.2751 267.467 18.7324 261.728 18.7324C257.166 18.7324 252.898 19.8343 249.072 21.9646C245.099 24.1684 242.156 27.4742 240.242 31.8083C238.403 35.9956 237.446 40.9909 237.446 46.5004C237.446 55.1687 239.654 61.9271 244.069 66.702C248.483 71.4769 254.444 73.9011 261.728 73.9011C267.541 73.9011 272.544 72.138 276.591 68.6854C280.638 65.2328 283.14 60.3844 284.097 54.2872L284.391 52.4507L272.471 50.908L272.103 52.671Z" fill="black"/>
<path d="M299.625 19.9077H287.558V72.7992H299.625V19.9077Z" fill="black"/>
<path d="M299.625 1.17535H287.558V14.4717H299.625V1.17535Z" fill="black"/>
<path d="M342.445 54.5076C341.341 57.6663 339.796 59.9436 337.956 61.3394C336.117 62.7351 333.909 63.3963 331.187 63.3963C327.581 63.3963 324.638 62.1474 322.21 59.6498C320.076 57.446 318.825 54.3606 318.31 50.3203H354.88L354.953 48.5573C354.953 47.5288 355.027 46.7942 355.027 46.28C355.027 37.6851 352.746 30.9268 348.257 26.0784C343.769 21.23 337.809 18.8058 330.745 18.8058C323.461 18.8058 317.353 21.3035 312.791 26.2253C308.229 31.1472 305.875 38.0524 305.875 46.7942C305.875 55.2422 308.156 61.9271 312.718 66.702C317.28 71.4769 323.534 73.9011 331.187 73.9011C337.294 73.9011 342.445 72.3584 346.418 69.3465C350.391 66.3347 353.187 62.074 354.659 56.6379L355.248 54.581L343.033 53.1118L342.445 54.5076ZM318.825 39.8155C319.34 36.8771 320.517 34.5263 322.431 32.6898C324.712 30.486 327.434 29.3841 330.819 29.3841C334.498 29.3841 337.441 30.7799 339.796 33.5714C340.973 35.0406 341.856 37.0975 342.297 39.889H318.825V39.8155Z" fill="black"/>
<path d="M420.589 19.9077L409.626 49.8061C409.037 51.4957 408.449 53.1853 407.86 54.9483C407.271 53.1118 406.683 51.3488 406.02 49.6592L395.351 19.9077H383.431H382.401H375.043V1.32227L363.049 8.52139V19.9077H356.942V30.0453H363.049V56.5644C363.049 61.927 363.417 65.3062 364.226 67.1427C365.036 69.0527 366.507 70.5954 368.494 71.7707C370.481 72.8726 373.056 73.4603 376.441 73.4603C378.427 73.4603 380.635 73.1665 383.137 72.6523L384.829 72.285L383.063 61.4128L381.297 61.6332C379.899 61.8536 378.722 61.9271 377.912 61.9271C376.735 61.9271 376.22 61.7067 375.999 61.5598C375.631 61.3394 375.411 61.119 375.263 60.7517C375.263 60.6782 374.969 59.9436 374.969 56.8583V30.0453H383.357V22.6992L401.679 71.0361C401.458 71.6238 401.311 72.138 401.164 72.4319C399.692 76.5457 399.03 77.8679 398.809 78.2352C398.294 79.1167 397.559 79.7779 396.749 80.2187C395.94 80.6594 394.689 80.8798 393.217 80.8798C392.04 80.8798 390.568 80.6594 388.95 80.2187L386.301 79.4841L387.699 91.1643L388.802 91.5316C390.936 92.2662 392.997 92.6335 394.763 92.6335C397.779 92.6335 400.428 91.8989 402.636 90.4297C404.77 88.9605 406.683 86.7566 408.301 83.7447C409.479 81.6144 411.024 77.8679 413.084 72.3584L432.804 19.8343H420.589V19.9077Z" fill="black"/>
</svg>
