<svg width="1080" height="1080" viewBox="100 100 880 880" fill="none" xmlns="http://www.w3.org/2000/svg">
<path d="M504.773 548.898C504.773 537.117 508.294 526.775 515.336 517.871C519.669 512.421 524.781 508.036 530.672 504.719L531.637 506.395C526.186 510.728 522.293 514.943 519.957 519.039C515.861 526.182 513.812 535.695 513.812 547.578C513.812 556.38 514.591 563.642 516.148 569.363C518.891 579.384 524.053 586.883 531.637 591.859L530.316 593.535C526.152 591.538 521.65 587.628 516.809 581.805C508.785 572.156 504.773 561.188 504.773 548.898ZM535.801 573.121C539.626 572.715 542.098 572.038 543.215 571.09C544.366 570.108 544.941 567.654 544.941 563.727V517.465C544.941 513.775 544.383 511.371 543.266 510.254C542.148 509.103 539.66 508.392 535.801 508.121V506.191H565.203V508.121C561.378 508.324 558.805 508.951 557.484 510C556.198 511.049 555.555 513.301 555.555 516.754V566.723C555.555 567.874 555.741 568.788 556.113 569.465C556.52 570.108 557.383 570.514 558.703 570.684C559.482 570.785 560.294 570.853 561.141 570.887C562.021 570.921 563.646 570.938 566.016 570.938C575.258 570.938 581.504 570.176 584.754 568.652C588.004 567.129 591.152 563.236 594.199 556.973H596.84L591.762 575H535.801V573.121ZM606.742 509.441C606.742 507.986 607.25 506.733 608.266 505.684C609.281 504.634 610.534 504.109 612.023 504.109C613.479 504.109 614.715 504.634 615.73 505.684C616.78 506.699 617.305 507.952 617.305 509.441C617.305 510.897 616.78 512.15 615.73 513.199C614.715 514.215 613.479 514.723 612.023 514.723C610.534 514.723 609.281 514.215 608.266 513.199C607.25 512.15 606.742 510.897 606.742 509.441ZM600.242 573.578C603.865 573.24 606.15 572.63 607.098 571.75C608.046 570.836 608.52 568.398 608.52 564.438V540.215C608.52 538.014 608.367 536.491 608.062 535.645C607.555 534.257 606.488 533.562 604.863 533.562C604.491 533.562 604.118 533.596 603.746 533.664C603.408 533.732 602.392 534.003 600.699 534.477V532.902L602.883 532.191C608.807 530.262 612.938 528.806 615.273 527.824C616.221 527.418 616.831 527.215 617.102 527.215C617.169 527.452 617.203 527.706 617.203 527.977V564.438C617.203 568.297 617.66 570.717 618.574 571.699C619.522 572.681 621.638 573.307 624.922 573.578V575H600.242V573.578ZM658.082 506.191V508.121C654.087 508.392 651.497 509.069 650.312 510.152C649.128 511.202 648.535 513.639 648.535 517.465V550.727C648.535 556.177 649.28 560.426 650.77 563.473C653.546 569.025 658.81 571.801 666.562 571.801C675.06 571.801 680.764 568.957 683.676 563.27C685.301 560.087 686.113 555.178 686.113 548.543V521.477C686.113 515.823 685.436 512.285 684.082 510.863C682.728 509.408 680.155 508.493 676.363 508.121V506.191L700.434 506.191V508.121C696.405 508.561 693.764 509.543 692.512 511.066C691.293 512.556 690.684 516.026 690.684 521.477V548.543C690.684 555.72 689.583 561.323 687.383 565.352C683.32 572.766 675.602 576.473 664.227 576.473C652.987 576.473 645.336 572.816 641.273 565.504C639.073 561.577 637.973 556.397 637.973 549.965V517.465C637.973 513.673 637.38 511.253 636.195 510.203C635.044 509.12 632.505 508.426 628.578 508.121V506.191H658.082ZM731.918 549.406C731.918 554.451 731.258 559.224 729.938 563.727C728.617 568.229 726.688 572.478 724.148 576.473C721.474 580.738 717.902 584.716 713.434 588.406C710.488 590.844 708.017 592.553 706.02 593.535L705.055 591.859C710.268 587.898 714.077 583.853 716.48 579.723C720.746 572.41 722.879 562.745 722.879 550.727C722.879 541.01 721.897 533.072 719.934 526.91C717.191 518.21 712.232 511.371 705.055 506.395L706.375 504.719C711.724 507.698 716.701 512.201 721.305 518.227C728.38 527.503 731.918 537.896 731.918 549.406Z" fill="#02B9E7"/>
<path d="M370.54 504.178L343 575.963H356.549L364.06 555.348H389.98L397.933 575.963H412.218L382.837 504.178H370.54ZM367.963 544.304L374.516 526.781C375.326 524.572 376.063 522.29 376.725 520.007C377.535 522.363 378.493 525.014 379.597 527.885L385.783 544.23H367.963V544.304Z" fill="black"/>
<path d="M429.009 504.178H416.344V575.963H429.009V504.178Z" fill="black"/>
<path d="M492.924 544.157C490.862 541.065 487.622 538.561 483.351 536.573C480.48 535.248 475.399 533.776 467.888 532.082C458.757 530.021 455.959 528.401 455.149 527.665C453.75 526.413 453.087 524.941 453.087 523.026C453.087 520.744 454.118 518.903 456.106 517.21C458.242 515.516 461.85 514.633 466.857 514.633C471.643 514.633 475.251 515.59 477.534 517.504C479.817 519.419 481.142 522.216 481.584 526.045L481.805 527.812L494.029 526.928L493.955 525.161C493.808 520.818 492.556 516.915 490.273 513.455C487.991 509.994 484.751 507.344 480.553 505.577C476.503 503.884 471.717 503 466.489 503C461.702 503 457.211 503.81 453.308 505.43C449.258 507.123 446.092 509.626 443.882 512.94C441.747 516.253 440.642 519.787 440.642 523.615C440.642 527.076 441.526 530.242 443.293 533.113C445.061 535.911 447.712 538.267 451.246 540.107C453.897 541.506 458.389 542.979 464.795 544.525C470.907 545.998 474.957 547.102 476.724 547.765C479.228 548.722 481.069 549.9 482.026 551.225C482.983 552.477 483.499 553.949 483.499 555.716C483.499 557.41 482.983 559.029 481.952 560.502C480.848 561.974 479.154 563.152 476.872 564.036C474.442 564.993 471.643 565.435 468.403 565.435C464.795 565.435 461.555 564.772 458.683 563.594C455.959 562.416 453.897 560.87 452.645 558.956C451.32 557.041 450.51 554.465 450.142 551.372L449.921 549.605L437.918 550.636L437.992 552.403C438.139 557.262 439.464 561.753 442.042 565.582C444.619 569.484 448.153 572.429 452.645 574.344C456.99 576.258 462.512 577.215 468.845 577.215C473.926 577.215 478.639 576.258 482.762 574.344C486.96 572.429 490.2 569.705 492.482 566.171C494.765 562.711 495.87 558.882 495.87 554.906C496.091 550.857 494.986 547.249 492.924 544.157Z" fill="black"/>
</svg>
